HIERARCHY
ROOT hip
{
  OFFSET 0 0 0
  CHANNELS 6 Xposition Yposition Zposition Zrotation Yrotation Xrotation
  JOINT abdomen
  {
    OFFSET 0 20.6881 -0.73152
    CHANNELS 3 Zrotation Xrotation Yrotation
    JOINT chest
    {
      OFFSET 0 11.7043 -0.48768
      CHANNELS 3 Zrotation Xrotation Yrotation
      JOINT neck
      {
        OFFSET 0 22.1894 -2.19456
        CHANNELS 3 Zrotation Xrotation Yrotation
        JOINT head
        {
          OFFSET -0.24384 7.07133 1.2192
          CHANNELS 3 Zrotation Xrotation Yrotation
          JOINT leftEye
          {
            OFFSET 4.14528 8.04674 8.04672
            CHANNELS 3 Zrotation Xrotation Yrotation
            End Site
            {
              OFFSET 1 0 0
            }
          }
          JOINT rightEye
          {
            OFFSET -3.6576 8.04674 8.04672
            CHANNELS 3 Zrotation Xrotation Yrotation
            End Site
            {
              OFFSET 1 0 0
            }
          }
        }
      }
      JOINT rCollar
      {
        OFFSET -2.68224 19.2634 -4.8768
        CHANNELS 3 Zrotation Xrotation Yrotation
        JOINT rShldr
        {
          OFFSET -8.77824 -1.95073 1.46304
          CHANNELS 3 Zrotation Xrotation Yrotation
          JOINT rForeArm
          {
            OFFSET -28.1742 -1.7115 0.48768
            CHANNELS 3 Zrotation Xrotation Yrotation
            JOINT rHand
            {
              OFFSET -22.5879 0.773209 7.07136
              CHANNELS 3 Zrotation Xrotation Yrotation
              JOINT rThumb1
              {
                OFFSET -1.2192 -0.487915 3.41376
                CHANNELS 3 Zrotation Xrotation Yrotation
                JOINT rThumb2
                {
                  OFFSET -3.37035 -0.52449 3.41376
                  CHANNELS 3 Zrotation Xrotation Yrotation
                  End Site
                  {
                    OFFSET -1.78271 -1.18214 1.43049
                  }
                }
              }
              JOINT rIndex1
              {
                OFFSET -7.75947 0.938293 5.60832
                CHANNELS 3 Zrotation Xrotation Yrotation
                JOINT rIndex2
                {
                  OFFSET -2.54057 -0.884171 1.56538
                  CHANNELS 3 Zrotation Xrotation Yrotation
                  End Site
                  {
                    OFFSET -1.62519 -0.234802 1.16502
                  }
                }
              }
              JOINT rMid1
              {
                OFFSET -8.24714 1.18213 3.41376
                CHANNELS 3 Zrotation Xrotation Yrotation
                JOINT rMid2
                {
                  OFFSET -3.10165 -0.590103 1.0647
                  CHANNELS 3 Zrotation Xrotation Yrotation
                  End Site
                  {
                    OFFSET -2.48547 -0.328903 0.83742
                  }
                }
              }
              JOINT rRing1
              {
                OFFSET -8.82822 0.546677 1.51678
                CHANNELS 3 Zrotation Xrotation Yrotation
                JOINT rRing2
                {
                  OFFSET -2.60934 -0.819778 -0.0198488
                  CHANNELS 3 Zrotation Xrotation Yrotation
                  End Site
                  {
                    OFFSET -2.33842 -0.294052 0.168128
                  }
                }
              }
              JOINT rPinky1
              {
                OFFSET -8.27202 -0.0477905 -0.4584
                CHANNELS 3 Zrotation Xrotation Yrotation
                JOINT rPinky2
                {
                  OFFSET -1.82734 -0.647385 -0.700984
                  CHANNELS 3 Zrotation Xrotation Yrotation
                  End Site
                  {
                    OFFSET -1.69225 -0.51767 -0.607171
                  }
                }
              }
            }
          }
        }
      }
      JOINT lCollar
      {
        OFFSET 2.68224 19.2634 -4.8768
        CHANNELS 3 Zrotation Xrotation Yrotation
        JOINT lShldr
        {
          OFFSET 8.77824 -1.95073 1.46304
          CHANNELS 3 Zrotation Xrotation Yrotation
          JOINT lForeArm
          {
            OFFSET 28.1742 -1.7115 0.48768
            CHANNELS 3 Zrotation Xrotation Yrotation
            JOINT lHand
            {
              OFFSET 22.5879 0.773209 7.07136
              CHANNELS 3 Zrotation Xrotation Yrotation
              JOINT lThumb1
              {
                OFFSET 1.2192 -0.487915 3.41376
                CHANNELS 3 Zrotation Xrotation Yrotation
                JOINT lThumb2
                {
                  OFFSET 3.37035 -0.52449 3.41376
                  CHANNELS 3 Zrotation Xrotation Yrotation
                  End Site
                  {
                    OFFSET 1.78271 -1.18214 1.43049
                  }
                }
              }
              JOINT lIndex1
              {
                OFFSET 7.75947 0.938293 5.60832
                CHANNELS 3 Zrotation Xrotation Yrotation
                JOINT lIndex2
                {
                  OFFSET 2.54057 -0.884171 1.56538
                  CHANNELS 3 Zrotation Xrotation Yrotation
                  End Site
                  {
                    OFFSET 1.62519 -0.234802 1.16502
                  }
                }
              }
              JOINT lMid1
              {
                OFFSET 8.24714 1.18213 3.41376
                CHANNELS 3 Zrotation Xrotation Yrotation
                JOINT lMid2
                {
                  OFFSET 3.10165 -0.590103 1.0647
                  CHANNELS 3 Zrotation Xrotation Yrotation
                  End Site
                  {
                    OFFSET 2.48547 -0.328903 0.83742
                  }
                }
              }
              JOINT lRing1
              {
                OFFSET 8.82822 0.546677 1.51678
                CHANNELS 3 Zrotation Xrotation Yrotation
                JOINT lRing2
                {
                  OFFSET 2.60934 -0.819778 -0.0198488
                  CHANNELS 3 Zrotation Xrotation Yrotation
                  End Site
                  {
                    OFFSET 2.33842 -0.294052 0.168128
                  }
                }
              }
              JOINT lPinky1
              {
                OFFSET 8.27202 -0.0477905 -0.4584
                CHANNELS 3 Zrotation Xrotation Yrotation
                JOINT lPinky2
                {
                  OFFSET 1.82734 -0.647385 -0.700984
                  CHANNELS 3 Zrotation Xrotation Yrotation
                  End Site
                  {
                    OFFSET 1.69225 -0.51767 -0.607171
                  }
                }
              }
            }
          }
        }
      }
    }
  }
  JOINT rButtock
  {
    OFFSET -8.77824 4.35084 1.2192
    CHANNELS 3 Zrotation Xrotation Yrotation
    JOINT rThigh
    {
      OFFSET 0 -1.70687 -2.19456
      CHANNELS 3 Zrotation Xrotation Yrotation
      JOINT rShin
      {
        OFFSET 0 -36.8199 0.73152
        CHANNELS 3 Zrotation Xrotation Yrotation
        JOINT rFoot
        {
          OFFSET 0.73152 -45.1104 -5.12064
          CHANNELS 3 Zrotation Xrotation Yrotation
          End Site
          {
            OFFSET -1.1221 -3.69964 12.103
          }
        }
      }
    }
  }
  JOINT lButtock
  {
    OFFSET 8.77824 4.35084 1.2192
    CHANNELS 3 Zrotation Xrotation Yrotation
    JOINT lThigh
    {
      OFFSET 0 -1.70687 -2.19456
      CHANNELS 3 Zrotation Xrotation Yrotation
      JOINT lShin
      {
        OFFSET 0 -36.8199 0.73152
        CHANNELS 3 Zrotation Xrotation Yrotation
        JOINT lFoot
        {
          OFFSET -0.73152 -45.1104 -5.12064
          CHANNELS 3 Zrotation Xrotation Yrotation
          End Site
          {
            OFFSET 1.1221 -3.69964 12.103
          }
        }
      }
    }
  }
}
MOTION
Frames:	5
Frame Time:	0.00833333
27.7377 78.1714 47.1018 20.4233 54.4441 19.1888 -15.5259 19.4715 11.7678 1.53841 1.56618 2.46971 -11.5737 17.2348 -9.15445 29.8846 -48.1939 -5.85085 -0.0 0.0 0.0 -0.0 0.0 0.0 4.29015e-13 1.23215e-12 -9.39456e-13 72.5126 3.92343 -1.518 -18.6239 -11.3733 35.4359 -0.00454088 -0.492233 -0.0690362 8.08756e-10 1.51357e-08 -5.15724e-09 1.40679e-09 2.62165e-08 -8.9377e-09 8.0876e-10 1.51356e-08 -5.15724e-09 7.73091 5.47488 0.417314 8.08756e-10 1.51357e-08 -5.15724e-09 2.90554 0.965183 0.102902 8.08761e-10 1.51356e-08 -5.15724e-09 10.2786 0.731801 0.0259123 8.08753e-10 1.51357e-08 -5.15724e-09 2.22167 -0.733487 -0.20892 4.28965e-13 1.23214e-12 -9.39683e-13 -69.1212 -5.60732 7.51398 28.4486 -36.5911 -77.8824 2.52395 -40.2524 6.84362 1.17312e-09 -2.24194e-09 -2.58095e-09 2.11178e-09 -3.80142e-09 -4.41365e-09 1.17311e-09 -2.24194e-09 -2.58094e-09 -7.73091 5.47488 -0.417314 1.17312e-09 -2.24193e-09 -2.58094e-09 -2.90554 0.965183 -0.102902 1.17311e-09 -2.24194e-09 -2.58094e-09 -10.2786 0.731801 -0.0259123 1.17312e-09 -2.24193e-09 -2.58095e-09 -2.22167 -0.733487 0.20892 -2.03217e-16 0.0 -3.88251e-19 -11.0474 -41.6262 -12.8007 -27.6915 87.8067 28.2868 -2.51921 -4.01252 -9.8401 2.03217e-16 0.0 3.88251e-19 -1.40602 -12.3574 7.73166 0.409146 48.2009 -1.2417 0.342885 -0.359142 -10.5752
30.763 78.6614 49.2947 21.1785 54.3953 19.5204 -15.8642 19.1727 11.1596 1.85996 1.54806 2.30388 -11.6678 17.0132 -8.96809 29.5888 -47.4267 -5.75195 -0.0 0.0 0.0 -0.0 0.0 0.0 2.35497e-13 1.54591e-12 -8.50885e-13 72.5081 3.5486 -2.61239 -18.8861 -11.6722 36.0401 -0.0027799 -0.787095 -0.110592 1.27415e-09 1.17515e-08 -3.78183e-09 2.21077e-09 2.03547e-08 -6.5554e-09 1.27416e-09 1.17515e-08 -3.78183e-09 7.73091 5.47488 0.417314 1.27415e-09 1.17515e-08 -3.78184e-09 2.90554 0.965183 0.102902 1.27416e-09 1.17515e-08 -3.78184e-09 10.2786 0.731801 0.0259123 1.27415e-09 1.17515e-08 -3.78183e-09 2.22167 -0.733487 -0.20892 2.35436e-13 1.54592e-12 -8.51127e-13 -67.3137 -6.18179 8.64893 28.4434 -35.4138 -76.0063 2.22984 -38.3526 6.38912 1.29714e-09 -1.51056e-09 -1.10774e-09 2.27747e-09 -2.55701e-09 -1.87679e-09 1.29713e-09 -1.51056e-09 -1.10773e-09 -7.73091 5.47488 -0.417314 1.29714e-09 -1.51056e-09 -1.10774e-09 -2.90554 0.965183 -0.102902 1.29713e-09 -1.51056e-09 -1.10774e-09 -10.2786 0.731801 -0.0259123 1.29714e-09 -1.51056e-09 -1.10775e-09 -2.22167 -0.733487 0.20892 -2.03217e-16 0.0 -3.88251e-19 -13.2871 -42.4581 -14.6001 -11.4691 85.1867 12.143 -2.61617 -4.49824 -9.88798 2.03217e-16 0.0 3.88251e-19 -1.72716 -9.3117 7.55938 0.311055 46.2766 -1.32967 1.22045 3.7668 -11.3283
33.7616 79.1769 51.529 21.7581 54.4382 19.7865 -15.871 18.7986 10.4962 2.06889 1.59466 2.14006 -11.868 16.8065 -8.72688 29.5466 -46.5723 -5.45137 -0.0 0.0 0.0 -0.0 0.0 0.0 7.16023e-14 1.7485e-12 -7.4415e-13 72.4436 3.48432 -3.54973 -19.1433 -11.9711 36.6388 -0.00187146 -1.23516 -0.173618 1.56579e-09 8.80135e-09 -2.68304e-09 2.71369e-09 1.52466e-08 -4.65241e-09 1.5658e-09 8.80134e-09 -2.68305e-09 7.73091 5.47488 0.417314 1.56579e-09 8.80135e-09 -2.68306e-09 2.90554 0.965183 0.102902 1.5658e-09 8.80135e-09 -2.68305e-09 10.2786 0.731801 0.0259123 1.56579e-09 8.80135e-09 -2.68305e-09 2.22167 -0.733487 -0.20892 7.15273e-14 1.74852e-12 -7.44399e-13 -65.5868 -6.67701 9.69915 28.3993 -34.2738 -74.1486 2.13232 -37.7109 6.23837 1.2886e-09 -1.05965e-09 -2.33847e-10 2.23397e-09 -1.79248e-09 -3.74248e-10 1.2886e-09 -1.05965e-09 -2.33834e-10 -7.73091 5.47488 -0.417314 1.28861e-09 -1.05964e-09 -2.33844e-10 -2.90554 0.965183 -0.102902 1.2886e-09 -1.05964e-09 -2.33843e-10 -10.2786 0.731801 -0.0259123 1.28861e-09 -1.05964e-09 -2.3385e-10 -2.22167 -0.733487 0.20892 -2.03217e-16 0.0 -3.88251e-19 -15.1327 -43.0397 -16.1945 -6.4938 82.118 7.23474 -2.66157 -4.90716 -9.79434 2.03217e-16 0.0 3.88251e-19 -1.88431 -6.29439 7.22208 0.22267 44.3107 -1.40579 1.99988 7.14416 -11.7697
36.742 79.681 53.8033 22.0529 54.6195 19.9166 -15.4099 18.3462 9.73303 2.11438 1.75138 1.97279 -12.2766 16.6183 -8.37195 29.9537 -45.5541 -4.76765 -0.0 0.0 0.0 -0.0 0.0 0.0 -7.1758e-14 1.79832e-12 -5.79631e-13 72.3309 3.79291 -4.25101 -19.3699 -12.236 37.1829 -0.00421743 -1.87163 -0.263157 1.55788e-09 6.02018e-09 -1.84867e-09 2.69648e-09 1.04357e-08 -3.2081e-09 1.55788e-09 6.02017e-09 -1.84868e-09 7.73091 5.47488 0.417314 1.55788e-09 6.02017e-09 -1.84868e-09 2.90554 0.965183 0.102902 1.55789e-09 6.02017e-09 -1.84868e-09 10.2786 0.731801 0.0259123 1.55788e-09 6.02017e-09 -1.84867e-09 2.22167 -0.733487 -0.20892 -7.18563e-14 1.79834e-12 -5.79872e-13 -63.9188 -7.01608 10.6229 28.3384 -33.1538 -72.1935 2.28348 -38.8321 6.49058 1.04881e-09 -1.08826e-09 -3.14216e-10 1.82315e-09 -1.85463e-09 -5.19499e-10 1.04881e-09 -1.08826e-09 -3.14204e-10 -7.73091 5.47488 -0.417314 1.04881e-09 -1.08826e-09 -3.14214e-10 -2.90554 0.965183 -0.102902 1.04881e-09 -1.08826e-09 -3.14213e-10 -10.2786 0.731801 -0.0259123 1.04881e-09 -1.08826e-09 -3.14221e-10 -2.22167 -0.733487 0.20892 -2.03217e-16 0.0 -3.88251e-19 -16.4202 -43.3187 -17.5581 -4.14885 78.605 4.94508 -2.63406 -5.24636 -9.48136 2.03217e-16 0.0 3.88251e-19 -1.79538 -3.28715 6.58842 0.14963 42.2478 -1.47472 2.64945 9.70424 -12.298
39.7615 80.1838 56.1054 22.1615 54.8021 19.8927 -14.6612 17.8366 8.86857 2.0917 1.98153 1.79216 -12.8443 16.422 -7.94454 30.6731 -44.3837 -3.84356 -0.0 0.0 0.0 -0.0 0.0 0.0 -2.1541e-13 1.71799e-12 -3.53936e-13 72.1953 4.37408 -4.79497 -19.5754 -12.479 37.6864 -0.00861174 -2.5675 -0.361184 1.33155e-09 2.9696e-09 -1.05121e-09 2.29996e-09 5.1611e-09 -1.82787e-09 1.33156e-09 2.9696e-09 -1.05122e-09 7.73091 5.47488 0.417314 1.33155e-09 2.96961e-09 -1.05122e-09 2.90554 0.965183 0.102902 1.33156e-09 2.9696e-09 -1.05121e-09 10.2786 0.731801 0.0259123 1.33155e-09 2.9696e-09 -1.05121e-09 2.22167 -0.733487 -0.20892 -2.15539e-13 1.718e-12 -3.5416e-13 -62.3348 -7.07924 11.4514 28.2162 -31.9127 -70.1107 2.5954 -40.872 6.97969 6.39422e-10 -1.38815e-09 -9.26457e-10 1.13749e-09 -2.38645e-09 -1.58438e-09 6.39419e-10 -1.38815e-09 -9.26447e-10 -7.73091 5.47488 -0.417314 6.39426e-10 -1.38815e-09 -9.26458e-10 -2.90554 0.965183 -0.102902 6.39417e-10 -1.38815e-09 -9.26457e-10 -10.2786 0.731801 -0.0259123 6.39427e-10 -1.38815e-09 -9.26466e-10 -2.22167 -0.733487 0.20892 -2.03217e-16 0.0 -3.88251e-19 -17.3634 -43.283 -18.8332 -2.80976 74.638 3.65357 -2.55477 -5.53642 -9.02954 2.03217e-16 0.0 3.88251e-19 -1.50033 -0.242584 5.6851 0.0833437 39.9906 -1.53276 3.24699 11.8515 -12.8694
